<?xml version="1.0" encoding="UTF-8" standalone="no"?>
<!DOCTYPE svg PUBLIC "-//W3C//DTD SVG 1.1//EN"
 "http://www.w3.org/Graphics/SVG/1.1/DTD/svg11.dtd">
<!-- Generated by graphviz version 2.26.3 (20100126.1600)
 -->
<!-- Title: controllers_diagram Pages: 1 -->
<svg width="1410pt" height="810pt"
 viewBox="0.00 0.00 1410.09 810.28" xmlns="http://www.w3.org/2000/svg" xmlns:xlink="http://www.w3.org/1999/xlink">
<g id="graph1" class="graph" transform="scale(1 1) rotate(0) translate(4 806.284)">
<title>controllers_diagram</title>
<polygon fill="white" stroke="white" points="-4,5 -4,-806.284 1407.09,-806.284 1407.09,5 -4,5"/>
<!-- _diagram_info -->
<g id="node1" class="node"><title>_diagram_info</title>
<text text-anchor="start" x="723" y="-282.3" font-family="Times Roman,serif" font-size="13.00">Controllers diagram</text>
<text text-anchor="start" x="723" y="-265.3" font-family="Times Roman,serif" font-size="13.00">Date: Aug 18 2014 &#45; 15:07</text>
<text text-anchor="start" x="723" y="-248.3" font-family="Times Roman,serif" font-size="13.00">Migration version: 20140801171902</text>
<text text-anchor="start" x="723" y="-231.3" font-family="Times Roman,serif" font-size="13.00">Generated by RailRoady 1.1.2</text>
<text text-anchor="start" x="723" y="-214.3" font-family="Times Roman,serif" font-size="13.00">http://railroady.prestonlee.com</text>
</g>
<!-- Users::OmniauthCallbacksController -->
<g id="node2" class="node"><title>Users::OmniauthCallbacksController</title>
<polyline fill="none" stroke="black" points="727,-1.5 969,-1.5 "/>
<path fill="none" stroke="black" d="M969,-1.5C975,-1.5 981,-7.5 981,-13.5"/>
<polyline fill="none" stroke="black" points="981,-13.5 981,-91.5 "/>
<path fill="none" stroke="black" d="M981,-91.5C981,-97.5 975,-103.5 969,-103.5"/>
<polyline fill="none" stroke="black" points="969,-103.5 727,-103.5 "/>
<path fill="none" stroke="black" d="M727,-103.5C721,-103.5 715,-97.5 715,-91.5"/>
<polyline fill="none" stroke="black" points="715,-91.5 715,-13.5 "/>
<path fill="none" stroke="black" d="M715,-13.5C715,-7.5 721,-1.5 727,-1.5"/>
<text text-anchor="middle" x="848" y="-86.9" font-family="Times Roman,serif" font-size="14.00">Users::OmniauthCallbacksController</text>
<polyline fill="none" stroke="black" points="715,-77.5 981,-77.5 "/>
<text text-anchor="start" x="723" y="-60.9" font-family="Times Roman,serif" font-size="14.00">facebook</text>
<polyline fill="none" stroke="black" points="715,-51.5 981,-51.5 "/>
<polyline fill="none" stroke="black" points="715,-27.5 981,-27.5 "/>
<text text-anchor="start" x="723" y="-10.9" font-family="Times Roman,serif" font-size="14.00">_layout</text>
</g>
<!-- MessagesController -->
<g id="node3" class="node"><title>MessagesController</title>
<polyline fill="none" stroke="black" points="33.3497,-356.344 160.35,-356.344 "/>
<path fill="none" stroke="black" d="M160.35,-356.344C166.35,-356.344 172.35,-362.344 172.35,-368.344"/>
<polyline fill="none" stroke="black" points="172.35,-368.344 172.35,-464.344 "/>
<path fill="none" stroke="black" d="M172.35,-464.344C172.35,-470.344 166.35,-476.344 160.35,-476.344"/>
<polyline fill="none" stroke="black" points="160.35,-476.344 33.3497,-476.344 "/>
<path fill="none" stroke="black" d="M33.3497,-476.344C27.3497,-476.344 21.3497,-470.344 21.3497,-464.344"/>
<polyline fill="none" stroke="black" points="21.3497,-464.344 21.3497,-368.344 "/>
<path fill="none" stroke="black" d="M21.3497,-368.344C21.3497,-362.344 27.3497,-356.344 33.3497,-356.344"/>
<text text-anchor="middle" x="96.8497" y="-459.744" font-family="Times Roman,serif" font-size="14.00">MessagesController</text>
<polyline fill="none" stroke="black" points="21.3497,-450.344 172.35,-450.344 "/>
<text text-anchor="start" x="29.3497" y="-433.744" font-family="Times Roman,serif" font-size="14.00">create</text>
<text text-anchor="start" x="29.3497" y="-415.744" font-family="Times Roman,serif" font-size="14.00">new</text>
<polyline fill="none" stroke="black" points="21.3497,-406.344 172.35,-406.344 "/>
<polyline fill="none" stroke="black" points="21.3497,-382.344 172.35,-382.344 "/>
<text text-anchor="start" x="29.3497" y="-365.744" font-family="Times Roman,serif" font-size="14.00">_layout</text>
</g>
<!-- StaticPagesController -->
<g id="node4" class="node"><title>StaticPagesController</title>
<polyline fill="none" stroke="black" points="489.594,-413.804 630.594,-413.804 "/>
<path fill="none" stroke="black" d="M630.594,-413.804C636.594,-413.804 642.594,-419.804 642.594,-425.804"/>
<polyline fill="none" stroke="black" points="642.594,-425.804 642.594,-557.804 "/>
<path fill="none" stroke="black" d="M642.594,-557.804C642.594,-563.804 636.594,-569.804 630.594,-569.804"/>
<polyline fill="none" stroke="black" points="630.594,-569.804 489.594,-569.804 "/>
<path fill="none" stroke="black" d="M489.594,-569.804C483.594,-569.804 477.594,-563.804 477.594,-557.804"/>
<polyline fill="none" stroke="black" points="477.594,-557.804 477.594,-425.804 "/>
<path fill="none" stroke="black" d="M477.594,-425.804C477.594,-419.804 483.594,-413.804 489.594,-413.804"/>
<text text-anchor="middle" x="560.094" y="-553.204" font-family="Times Roman,serif" font-size="14.00">StaticPagesController</text>
<polyline fill="none" stroke="black" points="477.594,-543.804 642.594,-543.804 "/>
<text text-anchor="start" x="485.594" y="-527.204" font-family="Times Roman,serif" font-size="14.00">about</text>
<text text-anchor="start" x="485.594" y="-509.204" font-family="Times Roman,serif" font-size="14.00">contact</text>
<text text-anchor="start" x="485.594" y="-491.204" font-family="Times Roman,serif" font-size="14.00">help</text>
<text text-anchor="start" x="485.594" y="-473.204" font-family="Times Roman,serif" font-size="14.00">home</text>
<polyline fill="none" stroke="black" points="477.594,-463.804 642.594,-463.804 "/>
<polyline fill="none" stroke="black" points="477.594,-439.804 642.594,-439.804 "/>
<text text-anchor="start" x="485.594" y="-423.204" font-family="Times Roman,serif" font-size="14.00">_layout</text>
</g>
<!-- SearchesController -->
<g id="node5" class="node"><title>SearchesController</title>
<polyline fill="none" stroke="black" points="501.42,-34.1074 625.42,-34.1074 "/>
<path fill="none" stroke="black" d="M625.42,-34.1074C631.42,-34.1074 637.42,-40.1074 637.42,-46.1074"/>
<polyline fill="none" stroke="black" points="637.42,-46.1074 637.42,-178.107 "/>
<path fill="none" stroke="black" d="M637.42,-178.107C637.42,-184.107 631.42,-190.107 625.42,-190.107"/>
<polyline fill="none" stroke="black" points="625.42,-190.107 501.42,-190.107 "/>
<path fill="none" stroke="black" d="M501.42,-190.107C495.42,-190.107 489.42,-184.107 489.42,-178.107"/>
<polyline fill="none" stroke="black" points="489.42,-178.107 489.42,-46.1074 "/>
<path fill="none" stroke="black" d="M489.42,-46.1074C489.42,-40.1074 495.42,-34.1074 501.42,-34.1074"/>
<text text-anchor="middle" x="563.42" y="-173.507" font-family="Times Roman,serif" font-size="14.00">SearchesController</text>
<polyline fill="none" stroke="black" points="489.42,-164.107 637.42,-164.107 "/>
<text text-anchor="start" x="497.42" y="-147.507" font-family="Times Roman,serif" font-size="14.00">create</text>
<text text-anchor="start" x="497.42" y="-129.507" font-family="Times Roman,serif" font-size="14.00">new</text>
<text text-anchor="start" x="497.42" y="-111.507" font-family="Times Roman,serif" font-size="14.00">show</text>
<polyline fill="none" stroke="black" points="489.42,-102.107 637.42,-102.107 "/>
<polyline fill="none" stroke="black" points="489.42,-78.1074 637.42,-78.1074 "/>
<text text-anchor="start" x="497.42" y="-61.5074" font-family="Times Roman,serif" font-size="14.00">_layout</text>
<text text-anchor="start" x="497.42" y="-43.5074" font-family="Times Roman,serif" font-size="14.00">search_params</text>
</g>
<!-- SessionsController -->
<g id="node6" class="node"><title>SessionsController</title>
<polyline fill="none" stroke="black" points="267.168,-589.082 387.168,-589.082 "/>
<path fill="none" stroke="black" d="M387.168,-589.082C393.168,-589.082 399.168,-595.082 399.168,-601.082"/>
<polyline fill="none" stroke="black" points="399.168,-601.082 399.168,-715.082 "/>
<path fill="none" stroke="black" d="M399.168,-715.082C399.168,-721.082 393.168,-727.082 387.168,-727.082"/>
<polyline fill="none" stroke="black" points="387.168,-727.082 267.168,-727.082 "/>
<path fill="none" stroke="black" d="M267.168,-727.082C261.168,-727.082 255.168,-721.082 255.168,-715.082"/>
<polyline fill="none" stroke="black" points="255.168,-715.082 255.168,-601.082 "/>
<path fill="none" stroke="black" d="M255.168,-601.082C255.168,-595.082 261.168,-589.082 267.168,-589.082"/>
<text text-anchor="middle" x="327.168" y="-710.482" font-family="Times Roman,serif" font-size="14.00">SessionsController</text>
<polyline fill="none" stroke="black" points="255.168,-701.082 399.168,-701.082 "/>
<text text-anchor="start" x="263.168" y="-684.482" font-family="Times Roman,serif" font-size="14.00">create</text>
<text text-anchor="start" x="263.168" y="-666.482" font-family="Times Roman,serif" font-size="14.00">destroy</text>
<text text-anchor="start" x="263.168" y="-648.482" font-family="Times Roman,serif" font-size="14.00">new</text>
<polyline fill="none" stroke="black" points="255.168,-639.082 399.168,-639.082 "/>
<polyline fill="none" stroke="black" points="255.168,-615.082 399.168,-615.082 "/>
<text text-anchor="start" x="263.168" y="-598.482" font-family="Times Roman,serif" font-size="14.00">_layout</text>
</g>
<!-- HousesController -->
<g id="node7" class="node"><title>HousesController</title>
<polyline fill="none" stroke="black" points="510.277,-590.784 621.277,-590.784 "/>
<path fill="none" stroke="black" d="M621.277,-590.784C627.277,-590.784 633.277,-596.784 633.277,-602.784"/>
<polyline fill="none" stroke="black" points="633.277,-602.784 633.277,-788.784 "/>
<path fill="none" stroke="black" d="M633.277,-788.784C633.277,-794.784 627.277,-800.784 621.277,-800.784"/>
<polyline fill="none" stroke="black" points="621.277,-800.784 510.277,-800.784 "/>
<path fill="none" stroke="black" d="M510.277,-800.784C504.277,-800.784 498.277,-794.784 498.277,-788.784"/>
<polyline fill="none" stroke="black" points="498.277,-788.784 498.277,-602.784 "/>
<path fill="none" stroke="black" d="M498.277,-602.784C498.277,-596.784 504.277,-590.784 510.277,-590.784"/>
<text text-anchor="middle" x="565.777" y="-784.184" font-family="Times Roman,serif" font-size="14.00">HousesController</text>
<polyline fill="none" stroke="black" points="498.277,-774.784 633.277,-774.784 "/>
<text text-anchor="start" x="506.277" y="-758.184" font-family="Times Roman,serif" font-size="14.00">create</text>
<text text-anchor="start" x="506.277" y="-740.184" font-family="Times Roman,serif" font-size="14.00">destroy</text>
<text text-anchor="start" x="506.277" y="-722.184" font-family="Times Roman,serif" font-size="14.00">index</text>
<text text-anchor="start" x="506.277" y="-704.184" font-family="Times Roman,serif" font-size="14.00">new</text>
<text text-anchor="start" x="506.277" y="-686.184" font-family="Times Roman,serif" font-size="14.00">show</text>
<polyline fill="none" stroke="black" points="498.277,-676.784 633.277,-676.784 "/>
<polyline fill="none" stroke="black" points="498.277,-652.784 633.277,-652.784 "/>
<text text-anchor="start" x="506.277" y="-636.184" font-family="Times Roman,serif" font-size="14.00">_layout</text>
<text text-anchor="start" x="506.277" y="-618.184" font-family="Times Roman,serif" font-size="14.00">correct_user</text>
<text text-anchor="start" x="506.277" y="-600.184" font-family="Times Roman,serif" font-size="14.00">house_params</text>
</g>
<!-- CommentsController -->
<g id="node8" class="node"><title>CommentsController</title>
<polyline fill="none" stroke="black" points="29.7592,-611.606 164.759,-611.606 "/>
<path fill="none" stroke="black" d="M164.759,-611.606C170.759,-611.606 176.759,-617.606 176.759,-623.606"/>
<polyline fill="none" stroke="black" points="176.759,-623.606 176.759,-719.606 "/>
<path fill="none" stroke="black" d="M176.759,-719.606C176.759,-725.606 170.759,-731.606 164.759,-731.606"/>
<polyline fill="none" stroke="black" points="164.759,-731.606 29.7592,-731.606 "/>
<path fill="none" stroke="black" d="M29.7592,-731.606C23.7592,-731.606 17.7592,-725.606 17.7592,-719.606"/>
<polyline fill="none" stroke="black" points="17.7592,-719.606 17.7592,-623.606 "/>
<path fill="none" stroke="black" d="M17.7592,-623.606C17.7592,-617.606 23.7592,-611.606 29.7592,-611.606"/>
<text text-anchor="middle" x="97.2592" y="-715.006" font-family="Times Roman,serif" font-size="14.00">CommentsController</text>
<polyline fill="none" stroke="black" points="17.7592,-705.606 176.759,-705.606 "/>
<text text-anchor="start" x="25.7592" y="-689.006" font-family="Times Roman,serif" font-size="14.00">create</text>
<text text-anchor="start" x="25.7592" y="-671.006" font-family="Times Roman,serif" font-size="14.00">destroy</text>
<polyline fill="none" stroke="black" points="17.7592,-661.606 176.759,-661.606 "/>
<polyline fill="none" stroke="black" points="17.7592,-637.606 176.759,-637.606 "/>
<text text-anchor="start" x="25.7592" y="-621.006" font-family="Times Roman,serif" font-size="14.00">_layout</text>
</g>
<!-- ConversationsController -->
<g id="node9" class="node"><title>ConversationsController</title>
<polyline fill="none" stroke="black" points="13,-1.5 173,-1.5 "/>
<path fill="none" stroke="black" d="M173,-1.5C179,-1.5 185,-7.5 185,-13.5"/>
<polyline fill="none" stroke="black" points="185,-13.5 185,-289.5 "/>
<path fill="none" stroke="black" d="M185,-289.5C185,-295.5 179,-301.5 173,-301.5"/>
<polyline fill="none" stroke="black" points="173,-301.5 13,-301.5 "/>
<path fill="none" stroke="black" d="M13,-301.5C7,-301.5 1,-295.5 1,-289.5"/>
<polyline fill="none" stroke="black" points="1,-289.5 1,-13.5 "/>
<path fill="none" stroke="black" d="M1,-13.5C1,-7.5 7,-1.5 13,-1.5"/>
<text text-anchor="middle" x="93" y="-284.9" font-family="Times Roman,serif" font-size="14.00">ConversationsController</text>
<polyline fill="none" stroke="black" points="1,-275.5 185,-275.5 "/>
<text text-anchor="start" x="9" y="-258.9" font-family="Times Roman,serif" font-size="14.00">create</text>
<text text-anchor="start" x="9" y="-240.9" font-family="Times Roman,serif" font-size="14.00">empty_trash</text>
<text text-anchor="start" x="9" y="-222.9" font-family="Times Roman,serif" font-size="14.00">index</text>
<text text-anchor="start" x="9" y="-204.9" font-family="Times Roman,serif" font-size="14.00">reply</text>
<text text-anchor="start" x="9" y="-186.9" font-family="Times Roman,serif" font-size="14.00">trash</text>
<text text-anchor="start" x="9" y="-168.9" font-family="Times Roman,serif" font-size="14.00">trashbin</text>
<text text-anchor="start" x="9" y="-150.9" font-family="Times Roman,serif" font-size="14.00">untrash</text>
<polyline fill="none" stroke="black" points="1,-141.5 185,-141.5 "/>
<polyline fill="none" stroke="black" points="1,-117.5 185,-117.5 "/>
<text text-anchor="start" x="9" y="-100.9" font-family="Times Roman,serif" font-size="14.00">_layout</text>
<text text-anchor="start" x="9" y="-82.9" font-family="Times Roman,serif" font-size="14.00">conversation</text>
<text text-anchor="start" x="9" y="-64.9" font-family="Times Roman,serif" font-size="14.00">conversation_params</text>
<text text-anchor="start" x="9" y="-46.9" font-family="Times Roman,serif" font-size="14.00">fetch_params</text>
<text text-anchor="start" x="9" y="-28.9" font-family="Times Roman,serif" font-size="14.00">mailbox</text>
<text text-anchor="start" x="9" y="-10.9" font-family="Times Roman,serif" font-size="14.00">message_params</text>
</g>
<!-- PicturesController -->
<g id="node10" class="node"><title>PicturesController</title>
<polyline fill="none" stroke="black" points="505.945,-259.504 622.945,-259.504 "/>
<path fill="none" stroke="black" d="M622.945,-259.504C628.945,-259.504 634.945,-265.504 634.945,-271.504"/>
<polyline fill="none" stroke="black" points="634.945,-271.504 634.945,-347.504 "/>
<path fill="none" stroke="black" d="M634.945,-347.504C634.945,-353.504 628.945,-359.504 622.945,-359.504"/>
<polyline fill="none" stroke="black" points="622.945,-359.504 505.945,-359.504 "/>
<path fill="none" stroke="black" d="M505.945,-359.504C499.945,-359.504 493.945,-353.504 493.945,-347.504"/>
<polyline fill="none" stroke="black" points="493.945,-347.504 493.945,-271.504 "/>
<path fill="none" stroke="black" d="M493.945,-271.504C493.945,-265.504 499.945,-259.504 505.945,-259.504"/>
<text text-anchor="middle" x="564.445" y="-342.904" font-family="Times Roman,serif" font-size="14.00">PicturesController</text>
<polyline fill="none" stroke="black" points="493.945,-333.504 634.945,-333.504 "/>
<polyline fill="none" stroke="black" points="493.945,-309.504 634.945,-309.504 "/>
<polyline fill="none" stroke="black" points="493.945,-285.504 634.945,-285.504 "/>
<text text-anchor="start" x="501.945" y="-268.904" font-family="Times Roman,serif" font-size="14.00">_layout</text>
</g>
<!-- UsersController -->
<g id="node11" class="node"><title>UsersController</title>
<polyline fill="none" stroke="black" points="271.729,-36.1013 371.729,-36.1013 "/>
<path fill="none" stroke="black" d="M371.729,-36.1013C377.729,-36.1013 383.729,-42.1013 383.729,-48.1013"/>
<polyline fill="none" stroke="black" points="383.729,-48.1013 383.729,-234.101 "/>
<path fill="none" stroke="black" d="M383.729,-234.101C383.729,-240.101 377.729,-246.101 371.729,-246.101"/>
<polyline fill="none" stroke="black" points="371.729,-246.101 271.729,-246.101 "/>
<path fill="none" stroke="black" d="M271.729,-246.101C265.729,-246.101 259.729,-240.101 259.729,-234.101"/>
<polyline fill="none" stroke="black" points="259.729,-234.101 259.729,-48.1013 "/>
<path fill="none" stroke="black" d="M259.729,-48.1013C259.729,-42.1013 265.729,-36.1013 271.729,-36.1013"/>
<text text-anchor="middle" x="321.729" y="-229.501" font-family="Times Roman,serif" font-size="14.00">UsersController</text>
<polyline fill="none" stroke="black" points="259.729,-220.101 383.729,-220.101 "/>
<text text-anchor="start" x="267.729" y="-203.501" font-family="Times Roman,serif" font-size="14.00">destroy</text>
<text text-anchor="start" x="267.729" y="-185.501" font-family="Times Roman,serif" font-size="14.00">edit</text>
<text text-anchor="start" x="267.729" y="-167.501" font-family="Times Roman,serif" font-size="14.00">index</text>
<text text-anchor="start" x="267.729" y="-149.501" font-family="Times Roman,serif" font-size="14.00">show</text>
<polyline fill="none" stroke="black" points="259.729,-140.101 383.729,-140.101 "/>
<polyline fill="none" stroke="black" points="259.729,-116.101 383.729,-116.101 "/>
<text text-anchor="start" x="267.729" y="-99.5013" font-family="Times Roman,serif" font-size="14.00">_layout</text>
<text text-anchor="start" x="267.729" y="-81.5013" font-family="Times Roman,serif" font-size="14.00">admin_user</text>
<text text-anchor="start" x="267.729" y="-63.5013" font-family="Times Roman,serif" font-size="14.00">correct_user</text>
<text text-anchor="start" x="267.729" y="-45.5013" font-family="Times Roman,serif" font-size="14.00">user_params</text>
</g>
<!-- ApplicationController -->
<g id="node12" class="node"><title>ApplicationController</title>
<polyline fill="none" stroke="black" points="216.435,-342.381 434.435,-342.381 "/>
<path fill="none" stroke="black" d="M434.435,-342.381C440.435,-342.381 446.435,-348.381 446.435,-354.381"/>
<polyline fill="none" stroke="black" points="446.435,-354.381 446.435,-432.381 "/>
<path fill="none" stroke="black" d="M446.435,-432.381C446.435,-438.381 440.435,-444.381 434.435,-444.381"/>
<polyline fill="none" stroke="black" points="434.435,-444.381 216.435,-444.381 "/>
<path fill="none" stroke="black" d="M216.435,-444.381C210.435,-444.381 204.435,-438.381 204.435,-432.381"/>
<polyline fill="none" stroke="black" points="204.435,-432.381 204.435,-354.381 "/>
<path fill="none" stroke="black" d="M204.435,-354.381C204.435,-348.381 210.435,-342.381 216.435,-342.381"/>
<text text-anchor="middle" x="325.435" y="-427.781" font-family="Times Roman,serif" font-size="14.00">ApplicationController</text>
<polyline fill="none" stroke="black" points="204.435,-418.381 446.435,-418.381 "/>
<polyline fill="none" stroke="black" points="204.435,-394.381 446.435,-394.381 "/>
<text text-anchor="start" x="212.435" y="-377.781" font-family="Times Roman,serif" font-size="14.00">configure_permitted_parameters</text>
<polyline fill="none" stroke="black" points="204.435,-368.381 446.435,-368.381 "/>
<text text-anchor="start" x="212.435" y="-351.781" font-family="Times Roman,serif" font-size="14.00">_layout</text>
</g>
<!-- ApplicationController&#45;&gt;MessagesController -->
<g id="edge4" class="edge"><title>ApplicationController&#45;&gt;MessagesController</title>
<path fill="none" stroke="black" d="M204.115,-405.569C193.322,-406.653 182.614,-407.729 172.376,-408.757"/>
</g>
<!-- ApplicationController&#45;&gt;StaticPagesController -->
<g id="edge6" class="edge"><title>ApplicationController&#45;&gt;StaticPagesController</title>
<path fill="none" stroke="black" d="M446.545,-444.178C456.967,-448.549 467.35,-452.904 477.363,-457.104"/>
</g>
<!-- ApplicationController&#45;&gt;SearchesController -->
<g id="edge8" class="edge"><title>ApplicationController&#45;&gt;SearchesController</title>
<path fill="none" stroke="black" d="M368.808,-342.118C404.672,-299.731 456.183,-238.851 497.202,-190.371"/>
</g>
<!-- ApplicationController&#45;&gt;SessionsController -->
<g id="edge10" class="edge"><title>ApplicationController&#45;&gt;SessionsController</title>
<path fill="none" stroke="black" d="M325.769,-444.418C326.038,-485.431 326.417,-543.454 326.713,-588.686"/>
</g>
<!-- ApplicationController&#45;&gt;HousesController -->
<g id="edge12" class="edge"><title>ApplicationController&#45;&gt;HousesController</title>
<path fill="none" stroke="black" d="M366.206,-444.679C402.299,-490.093 455.689,-557.27 498.168,-610.716"/>
</g>
<!-- ApplicationController&#45;&gt;CommentsController -->
<g id="edge14" class="edge"><title>ApplicationController&#45;&gt;CommentsController</title>
<path fill="none" stroke="black" d="M283.584,-444.412C244.987,-491.475 187.651,-561.387 146.788,-611.214"/>
</g>
<!-- ApplicationController&#45;&gt;ConversationsController -->
<g id="edge16" class="edge"><title>ApplicationController&#45;&gt;ConversationsController</title>
<path fill="none" stroke="black" d="M276.426,-342.38C249.921,-314.798 216.31,-279.821 185.121,-247.364"/>
</g>
<!-- ApplicationController&#45;&gt;PicturesController -->
<g id="edge18" class="edge"><title>ApplicationController&#45;&gt;PicturesController</title>
<path fill="none" stroke="black" d="M446.69,-350.828C462.868,-345.151 479.003,-339.489 493.908,-334.258"/>
</g>
<!-- ApplicationController&#45;&gt;UsersController -->
<g id="edge20" class="edge"><title>ApplicationController&#45;&gt;UsersController</title>
<path fill="none" stroke="black" d="M324.685,-342.328C324.279,-314.685 323.762,-279.476 323.274,-246.264"/>
</g>
<!-- Devise::OmniauthCallbacksController -->
<g id="node13" class="node"><title>Devise::OmniauthCallbacksController</title>
<ellipse fill="none" stroke="black" cx="1207.59" cy="-52.5" rx="193.247" ry="18.3848"/>
<text text-anchor="middle" x="1207.59" y="-48.9" font-family="Times Roman,serif" font-size="14.00">Devise::OmniauthCallbacksController</text>
</g>
<!-- Devise::OmniauthCallbacksController&#45;&gt;Users::OmniauthCallbacksController -->
<g id="edge2" class="edge"><title>Devise::OmniauthCallbacksController&#45;&gt;Users::OmniauthCallbacksController</title>
<path fill="none" stroke="black" d="M1014.37,-52.5C1003.22,-52.5 992.142,-52.5 981.303,-52.5"/>
</g>
</g>
</svg>
