<?xml version="1.0" encoding="UTF-8" standalone="no"?>
<!DOCTYPE svg PUBLIC "-//W3C//DTD SVG 1.1//EN"
 "http://www.w3.org/Graphics/SVG/1.1/DTD/svg11.dtd">
<!-- Generated by graphviz version 2.26.3 (20100126.1600)
 -->
<!-- Title: models_diagram Pages: 1 -->
<svg width="947pt" height="362pt"
 viewBox="0.00 0.00 947.00 362.00" xmlns="http://www.w3.org/2000/svg" xmlns:xlink="http://www.w3.org/1999/xlink">
<g id="graph1" class="graph" transform="scale(1 1) rotate(0) translate(4 358)">
<title>models_diagram</title>
<polygon fill="white" stroke="white" points="-4,5 -4,-358 944,-358 944,5 -4,5"/>
<!-- _diagram_info -->
<g id="node1" class="node"><title>_diagram_info</title>
<text text-anchor="start" x="8" y="-337.8" font-family="Times Roman,serif" font-size="13.00">Models diagram</text>
<text text-anchor="start" x="8" y="-320.8" font-family="Times Roman,serif" font-size="13.00">Date: Aug 18 2014 &#45; 15:07</text>
<text text-anchor="start" x="8" y="-303.8" font-family="Times Roman,serif" font-size="13.00">Migration version: 20140801171902</text>
<text text-anchor="start" x="8" y="-286.8" font-family="Times Roman,serif" font-size="13.00">Generated by RailRoady 1.1.2</text>
<text text-anchor="start" x="8" y="-269.8" font-family="Times Roman,serif" font-size="13.00">http://railroady.prestonlee.com</text>
</g>
<!-- Comment -->
<g id="node2" class="node"><title>Comment</title>
<ellipse fill="none" stroke="black" cx="214" cy="-19" rx="58.1882" ry="18.3848"/>
<text text-anchor="middle" x="214" y="-15.4" font-family="Times Roman,serif" font-size="14.00">Comment</text>
</g>
<!-- Comment&#45;&gt;Comment -->
<g id="edge2" class="edge"><title>Comment&#45;&gt;Comment</title>
<path fill="none" stroke="#054f2a" d="M273.51,-26.9887C283.28,-25.8512 290,-23.1883 290,-19 290,-15.0992 284.17,-12.5215 275.477,-11.267"/>
<ellipse fill="none" stroke="#054f2a" cx="269.496" cy="-27.2759" rx="4" ry="4"/>
<polygon fill="#054f2a" stroke="#054f2a" points="275.472,-11.2666 265.878,-5.95414 270.489,-10.8527 265.506,-10.4387 265.506,-10.4387 265.506,-10.4387 270.489,-10.8527 265.133,-14.9233 275.472,-11.2666 275.472,-11.2666"/>
<text text-anchor="middle" x="317.5" y="-15.4" font-family="Times Roman,serif" font-size="14.00">children</text>
</g>
<!-- Picture -->
<g id="node3" class="node"><title>Picture</title>
<ellipse fill="none" stroke="black" cx="416" cy="-19" rx="45.9619" ry="18.3848"/>
<text text-anchor="middle" x="416" y="-15.4" font-family="Times Roman,serif" font-size="14.00">Picture</text>
</g>
<!-- Search -->
<g id="node4" class="node"><title>Search</title>
<ellipse fill="none" stroke="black" cx="341" cy="-203" rx="44.7575" ry="18.3848"/>
<text text-anchor="middle" x="341" y="-199.4" font-family="Times Roman,serif" font-size="14.00">Search</text>
</g>
<!-- User -->
<g id="node5" class="node"><title>User</title>
<ellipse fill="none" stroke="black" cx="438" cy="-203" rx="33.9411" ry="18.3848"/>
<text text-anchor="middle" x="438" y="-199.4" font-family="Times Roman,serif" font-size="14.00">User</text>
</g>
<!-- House -->
<g id="node6" class="node"><title>House</title>
<ellipse fill="none" stroke="black" cx="268" cy="-111" rx="41.2167" ry="18.3848"/>
<text text-anchor="middle" x="268" y="-107.4" font-family="Times Roman,serif" font-size="14.00">House</text>
</g>
<!-- User&#45;&gt;House -->
<g id="edge10" class="edge"><title>User&#45;&gt;House</title>
<path fill="none" stroke="#ab67bb" d="M406.222,-185.803C376.941,-169.956 333.56,-146.479 303.23,-130.066"/>
<ellipse fill="none" stroke="#ab67bb" cx="410.125" cy="-187.915" rx="4.00002" ry="4.00002"/>
<polygon fill="#ab67bb" stroke="#ab67bb" points="303.062,-129.975 296.409,-121.257 298.664,-127.595 294.267,-125.215 294.267,-125.215 294.267,-125.215 298.664,-127.595 292.125,-129.173 303.062,-129.975 303.062,-129.975"/>
</g>
<!-- Mailboxer::Message -->
<g id="node15" class="node"><title>Mailboxer::Message</title>
<ellipse fill="none" stroke="black" cx="432" cy="-111" rx="104.86" ry="18.3848"/>
<text text-anchor="middle" x="432" y="-107.4" font-family="Times Roman,serif" font-size="14.00">Mailboxer::Message</text>
</g>
<!-- User&#45;&gt;Mailboxer::Message -->
<g id="edge12" class="edge"><title>User&#45;&gt;Mailboxer::Message</title>
<path fill="none" stroke="#1af87d" d="M436.241,-176.029C435.496,-164.599 434.626,-151.267 433.869,-139.66"/>
<ellipse fill="none" stroke="#1af87d" cx="436.525" cy="-180.391" rx="4" ry="4"/>
<polygon fill="#1af87d" stroke="#1af87d" points="433.863,-139.569 437.703,-129.297 433.538,-134.579 433.212,-129.59 433.212,-129.59 433.212,-129.59 433.538,-134.579 428.722,-129.883 433.863,-139.569 433.863,-139.569"/>
<text text-anchor="middle" x="469.5" y="-153.4" font-family="Times Roman,serif" font-size="14.00">messages</text>
</g>
<!-- Mailboxer::Receipt -->
<g id="node17" class="node"><title>Mailboxer::Receipt</title>
<ellipse fill="none" stroke="black" cx="654" cy="-111" rx="99.201" ry="18.3848"/>
<text text-anchor="middle" x="654" y="-107.4" font-family="Times Roman,serif" font-size="14.00">Mailboxer::Receipt</text>
</g>
<!-- User&#45;&gt;Mailboxer::Receipt -->
<g id="edge14" class="edge"><title>User&#45;&gt;Mailboxer::Receipt</title>
<path fill="none" stroke="#82b77f" d="M472.284,-188.398C507.908,-173.224 564.001,-149.333 604.445,-132.107"/>
<ellipse fill="none" stroke="#82b77f" cx="468.6" cy="-189.967" rx="4.00002" ry="4.00002"/>
<polygon fill="#82b77f" stroke="#82b77f" points="604.651,-132.019 615.615,-132.24 609.252,-130.06 613.852,-128.1 613.852,-128.1 613.852,-128.1 609.252,-130.06 612.088,-123.96 604.651,-132.019 604.651,-132.019"/>
<text text-anchor="middle" x="593.5" y="-153.4" font-family="Times Roman,serif" font-size="14.00">receipts</text>
</g>
<!-- House&#45;&gt;Comment -->
<g id="edge20" class="edge"><title>House&#45;&gt;Comment</title>
<path fill="none" stroke="#4b39d0" d="M253.136,-85.6754C245.923,-73.3871 237.251,-58.6132 229.906,-46.0987"/>
<ellipse fill="none" stroke="#4b39d0" cx="255.307" cy="-89.3741" rx="4.00002" ry="4.00002"/>
<polygon fill="#4b39d0" stroke="#4b39d0" points="229.893,-46.0776 228.712,-35.1755 227.362,-41.7655 224.831,-37.4534 224.831,-37.4534 224.831,-37.4534 227.362,-41.7655 220.95,-39.7313 229.893,-46.0776 229.893,-46.0776"/>
<text text-anchor="middle" x="308" y="-61.4" font-family="Times Roman,serif" font-size="14.00">comment_threads</text>
</g>
<!-- House&#45;&gt;Picture -->
<g id="edge18" class="edge"><title>House&#45;&gt;Picture</title>
<path fill="none" stroke="#080f16" d="M306.807,-96.0267C310.58,-94.6393 314.358,-93.2765 318,-92 342.672,-83.3538 352.644,-89.0794 374,-74 384.475,-66.6034 393.516,-55.8138 400.499,-45.7463"/>
<ellipse fill="none" stroke="#080f16" cx="302.863" cy="-97.4944" rx="4.00001" ry="4.00001"/>
<polygon fill="#080f16" stroke="#080f16" points="400.62,-45.5606 409.856,-39.6493 403.354,-41.3745 406.089,-37.1883 406.089,-37.1883 406.089,-37.1883 403.354,-41.3745 402.321,-34.7274 400.62,-45.5606 400.62,-45.5606"/>
</g>
<!-- AdminUser -->
<g id="node7" class="node"><title>AdminUser</title>
<ellipse fill="none" stroke="black" cx="874" cy="-203" rx="65.0538" ry="18.3848"/>
<text text-anchor="middle" x="874" y="-199.4" font-family="Times Roman,serif" font-size="14.00">AdminUser</text>
</g>
<!-- ActiveRecord::Base -->
<g id="node9" class="node"><title>ActiveRecord::Base</title>
<ellipse fill="none" stroke="black" cx="372" cy="-307" rx="104.151" ry="18.3848"/>
<text text-anchor="middle" x="372" y="-303.4" font-family="Times Roman,serif" font-size="14.00">ActiveRecord::Base</text>
</g>
<!-- ActiveRecord::Base&#45;&gt;Comment -->
<g id="edge4" class="edge"><title>ActiveRecord::Base&#45;&gt;Comment</title>
<path fill="none" stroke="black" d="M345.741,-288.908C323.949,-273.012 293.065,-248.361 271,-222 240.711,-185.815 231.011,-175.36 218,-130 208.962,-98.489 210.163,-59.8799 211.991,-37.4955"/>
</g>
<!-- ActiveRecord::Base&#45;&gt;Picture -->
<g id="edge6" class="edge"><title>ActiveRecord::Base&#45;&gt;Picture</title>
<path fill="none" stroke="black" d="M455,-295.78C547.962,-278.291 694.442,-234.851 762,-130 771.148,-115.803 772.638,-105.117 762,-92 724.682,-45.9875 546.975,-27.8619 461.77,-21.7273"/>
</g>
<!-- ActiveRecord::Base&#45;&gt;Search -->
<g id="edge8" class="edge"><title>ActiveRecord::Base&#45;&gt;Search</title>
<path fill="none" stroke="black" d="M366.458,-288.407C360.815,-269.477 352.119,-240.304 346.494,-221.432"/>
</g>
<!-- ActiveRecord::Base&#45;&gt;User -->
<g id="edge16" class="edge"><title>ActiveRecord::Base&#45;&gt;User</title>
<path fill="none" stroke="black" d="M383.799,-288.407C395.961,-269.243 414.785,-239.582 426.743,-220.738"/>
</g>
<!-- ActiveRecord::Base&#45;&gt;House -->
<g id="edge22" class="edge"><title>ActiveRecord::Base&#45;&gt;House</title>
<path fill="none" stroke="black" d="M346.958,-289.027C327.385,-273.556 301.193,-249.433 287,-222 271.637,-192.307 268.32,-152.755 267.812,-129.765"/>
</g>
<!-- ActiveRecord::Base&#45;&gt;AdminUser -->
<g id="edge24" class="edge"><title>ActiveRecord::Base&#45;&gt;AdminUser</title>
<path fill="none" stroke="black" d="M469.675,-300.506C556.668,-292.732 686.586,-276.193 795,-242 812.505,-236.479 830.957,-227.565 845.623,-219.651"/>
</g>
</g>
</svg>
