<?xml version="1.0" encoding="UTF-8" standalone="no"?>
<!DOCTYPE svg PUBLIC "-//W3C//DTD SVG 1.1//EN"
 "http://www.w3.org/Graphics/SVG/1.1/DTD/svg11.dtd">
<!-- Generated by graphviz version 2.26.3 (20100126.1600)
 -->
<!-- Title: models_diagram Pages: 1 -->
<svg width="1043pt" height="1094pt"
 viewBox="0.00 0.00 1043.00 1094.00" xmlns="http://www.w3.org/2000/svg" xmlns:xlink="http://www.w3.org/1999/xlink">
<g id="graph1" class="graph" transform="scale(1 1) rotate(0) translate(4 1090)">
<title>models_diagram</title>
<polygon fill="white" stroke="white" points="-4,5 -4,-1090 1040,-1090 1040,5 -4,5"/>
<!-- _diagram_info -->
<g id="node1" class="node"><title>_diagram_info</title>
<text text-anchor="start" x="8" y="-1069.8" font-family="Times Roman,serif" font-size="13.00">Models diagram</text>
<text text-anchor="start" x="8" y="-1052.8" font-family="Times Roman,serif" font-size="13.00">Date: Aug 18 2014 &#45; 15:07</text>
<text text-anchor="start" x="8" y="-1035.8" font-family="Times Roman,serif" font-size="13.00">Migration version: 20140801171902</text>
<text text-anchor="start" x="8" y="-1018.8" font-family="Times Roman,serif" font-size="13.00">Generated by RailRoady 1.1.2</text>
<text text-anchor="start" x="8" y="-1001.8" font-family="Times Roman,serif" font-size="13.00">http://railroady.prestonlee.com</text>
</g>
<!-- Comment -->
<g id="node2" class="node"><title>Comment</title>
<polyline fill="none" stroke="black" points="39,-1 211,-1 "/>
<path fill="none" stroke="black" d="M211,-1C217,-1 223,-7 223,-13"/>
<polyline fill="none" stroke="black" points="223,-13 223,-239 "/>
<path fill="none" stroke="black" d="M223,-239C223,-245 217,-251 211,-251"/>
<polyline fill="none" stroke="black" points="211,-251 39,-251 "/>
<path fill="none" stroke="black" d="M39,-251C33,-251 27,-245 27,-239"/>
<polyline fill="none" stroke="black" points="27,-239 27,-13 "/>
<path fill="none" stroke="black" d="M27,-13C27,-7 33,-1 39,-1"/>
<text text-anchor="middle" x="125" y="-234.4" font-family="Times Roman,serif" font-size="14.00">Comment</text>
<polyline fill="none" stroke="black" points="27,-225 223,-225 "/>
<text text-anchor="start" x="35" y="-208.4" font-family="Times Roman,serif" font-size="14.00">id :integer</text>
<text text-anchor="start" x="35" y="-190.4" font-family="Times Roman,serif" font-size="14.00">commentable_id :integer</text>
<text text-anchor="start" x="35" y="-172.4" font-family="Times Roman,serif" font-size="14.00">commentable_type :string</text>
<text text-anchor="start" x="35" y="-154.4" font-family="Times Roman,serif" font-size="14.00">title :string</text>
<text text-anchor="start" x="35" y="-136.4" font-family="Times Roman,serif" font-size="14.00">body :text</text>
<text text-anchor="start" x="35" y="-118.4" font-family="Times Roman,serif" font-size="14.00">subject :string</text>
<text text-anchor="start" x="35" y="-100.4" font-family="Times Roman,serif" font-size="14.00">user_id :integer</text>
<text text-anchor="start" x="35" y="-82.4" font-family="Times Roman,serif" font-size="14.00">parent_id :integer</text>
<text text-anchor="start" x="35" y="-64.4" font-family="Times Roman,serif" font-size="14.00">lft :integer</text>
<text text-anchor="start" x="35" y="-46.4" font-family="Times Roman,serif" font-size="14.00">rgt :integer</text>
<text text-anchor="start" x="35" y="-28.4" font-family="Times Roman,serif" font-size="14.00">created_at :datetime</text>
<text text-anchor="start" x="35" y="-10.4" font-family="Times Roman,serif" font-size="14.00">updated_at :datetime</text>
</g>
<!-- Comment&#45;&gt;Comment -->
<g id="edge2" class="edge"><title>Comment&#45;&gt;Comment</title>
<path fill="none" stroke="#b062c2" d="M230.525,-145.915C237.065,-141.211 241,-134.572 241,-126 241,-118.142 237.693,-111.909 232.105,-107.301"/>
<ellipse fill="none" stroke="#b062c2" cx="226.67" cy="-148.043" rx="4.00002" ry="4.00002"/>
<polygon fill="#b062c2" stroke="#b062c2" points="231.779,-107.108 225.455,-98.1494 227.473,-104.566 223.168,-102.024 223.168,-102.024 223.168,-102.024 227.473,-104.566 220.88,-105.9 231.779,-107.108 231.779,-107.108"/>
<text text-anchor="middle" x="268.5" y="-122.4" font-family="Times Roman,serif" font-size="14.00">children</text>
</g>
<!-- Picture -->
<g id="node3" class="node"><title>Picture</title>
<polyline fill="none" stroke="black" points="496.5,-55 637.5,-55 "/>
<path fill="none" stroke="black" d="M637.5,-55C643.5,-55 649.5,-61 649.5,-67"/>
<polyline fill="none" stroke="black" points="649.5,-67 649.5,-185 "/>
<path fill="none" stroke="black" d="M649.5,-185C649.5,-191 643.5,-197 637.5,-197"/>
<polyline fill="none" stroke="black" points="637.5,-197 496.5,-197 "/>
<path fill="none" stroke="black" d="M496.5,-197C490.5,-197 484.5,-191 484.5,-185"/>
<polyline fill="none" stroke="black" points="484.5,-185 484.5,-67 "/>
<path fill="none" stroke="black" d="M484.5,-67C484.5,-61 490.5,-55 496.5,-55"/>
<text text-anchor="middle" x="567" y="-180.4" font-family="Times Roman,serif" font-size="14.00">Picture</text>
<polyline fill="none" stroke="black" points="484.5,-171 649.5,-171 "/>
<text text-anchor="start" x="492.5" y="-154.4" font-family="Times Roman,serif" font-size="14.00">id :integer</text>
<text text-anchor="start" x="492.5" y="-136.4" font-family="Times Roman,serif" font-size="14.00">description :string</text>
<text text-anchor="start" x="492.5" y="-118.4" font-family="Times Roman,serif" font-size="14.00">image :string</text>
<text text-anchor="start" x="492.5" y="-100.4" font-family="Times Roman,serif" font-size="14.00">created_at :datetime</text>
<text text-anchor="start" x="492.5" y="-82.4" font-family="Times Roman,serif" font-size="14.00">updated_at :datetime</text>
<text text-anchor="start" x="492.5" y="-64.4" font-family="Times Roman,serif" font-size="14.00">house_id :integer</text>
</g>
<!-- Search -->
<g id="node4" class="node"><title>Search</title>
<polyline fill="none" stroke="black" points="238.5,-658 379.5,-658 "/>
<path fill="none" stroke="black" d="M379.5,-658C385.5,-658 391.5,-664 391.5,-670"/>
<polyline fill="none" stroke="black" points="391.5,-670 391.5,-878 "/>
<path fill="none" stroke="black" d="M391.5,-878C391.5,-884 385.5,-890 379.5,-890"/>
<polyline fill="none" stroke="black" points="379.5,-890 238.5,-890 "/>
<path fill="none" stroke="black" d="M238.5,-890C232.5,-890 226.5,-884 226.5,-878"/>
<polyline fill="none" stroke="black" points="226.5,-878 226.5,-670 "/>
<path fill="none" stroke="black" d="M226.5,-670C226.5,-664 232.5,-658 238.5,-658"/>
<text text-anchor="middle" x="309" y="-873.4" font-family="Times Roman,serif" font-size="14.00">Search</text>
<polyline fill="none" stroke="black" points="226.5,-864 391.5,-864 "/>
<text text-anchor="start" x="234.5" y="-847.4" font-family="Times Roman,serif" font-size="14.00">id :integer</text>
<text text-anchor="start" x="234.5" y="-829.4" font-family="Times Roman,serif" font-size="14.00">country :string</text>
<text text-anchor="start" x="234.5" y="-811.4" font-family="Times Roman,serif" font-size="14.00">city :string</text>
<text text-anchor="start" x="234.5" y="-793.4" font-family="Times Roman,serif" font-size="14.00">address :string</text>
<text text-anchor="start" x="234.5" y="-775.4" font-family="Times Roman,serif" font-size="14.00">max_price :float</text>
<text text-anchor="start" x="234.5" y="-757.4" font-family="Times Roman,serif" font-size="14.00">max_radius :float</text>
<text text-anchor="start" x="234.5" y="-739.4" font-family="Times Roman,serif" font-size="14.00">created_at :datetime</text>
<text text-anchor="start" x="234.5" y="-721.4" font-family="Times Roman,serif" font-size="14.00">updated_at :datetime</text>
<text text-anchor="start" x="234.5" y="-703.4" font-family="Times Roman,serif" font-size="14.00">latitude :float</text>
<text text-anchor="start" x="234.5" y="-685.4" font-family="Times Roman,serif" font-size="14.00">longitude :float</text>
<text text-anchor="start" x="234.5" y="-667.4" font-family="Times Roman,serif" font-size="14.00">desired_price :float</text>
</g>
<!-- User -->
<g id="node5" class="node"><title>User</title>
<polyline fill="none" stroke="black" points="421,-595 651,-595 "/>
<path fill="none" stroke="black" d="M651,-595C657,-595 663,-601 663,-607"/>
<polyline fill="none" stroke="black" points="663,-607 663,-941 "/>
<path fill="none" stroke="black" d="M663,-941C663,-947 657,-953 651,-953"/>
<polyline fill="none" stroke="black" points="651,-953 421,-953 "/>
<path fill="none" stroke="black" d="M421,-953C415,-953 409,-947 409,-941"/>
<polyline fill="none" stroke="black" points="409,-941 409,-607 "/>
<path fill="none" stroke="black" d="M409,-607C409,-601 415,-595 421,-595"/>
<text text-anchor="middle" x="536" y="-936.4" font-family="Times Roman,serif" font-size="14.00">User</text>
<polyline fill="none" stroke="black" points="409,-927 663,-927 "/>
<text text-anchor="start" x="417" y="-910.4" font-family="Times Roman,serif" font-size="14.00">id :integer</text>
<text text-anchor="start" x="417" y="-892.4" font-family="Times Roman,serif" font-size="14.00">name :string</text>
<text text-anchor="start" x="417" y="-874.4" font-family="Times Roman,serif" font-size="14.00">email :string</text>
<text text-anchor="start" x="417" y="-856.4" font-family="Times Roman,serif" font-size="14.00">created_at :datetime</text>
<text text-anchor="start" x="417" y="-838.4" font-family="Times Roman,serif" font-size="14.00">updated_at :datetime</text>
<text text-anchor="start" x="417" y="-820.4" font-family="Times Roman,serif" font-size="14.00">admin :boolean</text>
<text text-anchor="start" x="417" y="-802.4" font-family="Times Roman,serif" font-size="14.00">encrypted_password :string</text>
<text text-anchor="start" x="417" y="-784.4" font-family="Times Roman,serif" font-size="14.00">reset_password_token :string</text>
<text text-anchor="start" x="417" y="-766.4" font-family="Times Roman,serif" font-size="14.00">reset_password_sent_at :datetime</text>
<text text-anchor="start" x="417" y="-748.4" font-family="Times Roman,serif" font-size="14.00">remember_created_at :datetime</text>
<text text-anchor="start" x="417" y="-730.4" font-family="Times Roman,serif" font-size="14.00">sign_in_count :integer</text>
<text text-anchor="start" x="417" y="-712.4" font-family="Times Roman,serif" font-size="14.00">current_sign_in_at :datetime</text>
<text text-anchor="start" x="417" y="-694.4" font-family="Times Roman,serif" font-size="14.00">last_sign_in_at :datetime</text>
<text text-anchor="start" x="417" y="-676.4" font-family="Times Roman,serif" font-size="14.00">current_sign_in_ip :string</text>
<text text-anchor="start" x="417" y="-658.4" font-family="Times Roman,serif" font-size="14.00">last_sign_in_ip :string</text>
<text text-anchor="start" x="417" y="-640.4" font-family="Times Roman,serif" font-size="14.00">provider :string</text>
<text text-anchor="start" x="417" y="-622.4" font-family="Times Roman,serif" font-size="14.00">uid :string</text>
<text text-anchor="start" x="417" y="-604.4" font-family="Times Roman,serif" font-size="14.00">avatar :string</text>
</g>
<!-- House -->
<g id="node6" class="node"><title>House</title>
<polyline fill="none" stroke="black" points="128.5,-307 269.5,-307 "/>
<path fill="none" stroke="black" d="M269.5,-307C275.5,-307 281.5,-313 281.5,-319"/>
<polyline fill="none" stroke="black" points="281.5,-319 281.5,-527 "/>
<path fill="none" stroke="black" d="M281.5,-527C281.5,-533 275.5,-539 269.5,-539"/>
<polyline fill="none" stroke="black" points="269.5,-539 128.5,-539 "/>
<path fill="none" stroke="black" d="M128.5,-539C122.5,-539 116.5,-533 116.5,-527"/>
<polyline fill="none" stroke="black" points="116.5,-527 116.5,-319 "/>
<path fill="none" stroke="black" d="M116.5,-319C116.5,-313 122.5,-307 128.5,-307"/>
<text text-anchor="middle" x="199" y="-522.4" font-family="Times Roman,serif" font-size="14.00">House</text>
<polyline fill="none" stroke="black" points="116.5,-513 281.5,-513 "/>
<text text-anchor="start" x="124.5" y="-496.4" font-family="Times Roman,serif" font-size="14.00">id :integer</text>
<text text-anchor="start" x="124.5" y="-478.4" font-family="Times Roman,serif" font-size="14.00">description :string</text>
<text text-anchor="start" x="124.5" y="-460.4" font-family="Times Roman,serif" font-size="14.00">user_id :integer</text>
<text text-anchor="start" x="124.5" y="-442.4" font-family="Times Roman,serif" font-size="14.00">address :string</text>
<text text-anchor="start" x="124.5" y="-424.4" font-family="Times Roman,serif" font-size="14.00">latitude :float</text>
<text text-anchor="start" x="124.5" y="-406.4" font-family="Times Roman,serif" font-size="14.00">longitude :float</text>
<text text-anchor="start" x="124.5" y="-388.4" font-family="Times Roman,serif" font-size="14.00">country :string</text>
<text text-anchor="start" x="124.5" y="-370.4" font-family="Times Roman,serif" font-size="14.00">city :string</text>
<text text-anchor="start" x="124.5" y="-352.4" font-family="Times Roman,serif" font-size="14.00">price :float</text>
<text text-anchor="start" x="124.5" y="-334.4" font-family="Times Roman,serif" font-size="14.00">created_at :datetime</text>
<text text-anchor="start" x="124.5" y="-316.4" font-family="Times Roman,serif" font-size="14.00">updated_at :datetime</text>
</g>
<!-- User&#45;&gt;House -->
<g id="edge10" class="edge"><title>User&#45;&gt;House</title>
<path fill="none" stroke="#88099b" d="M402.823,-596.361C401.885,-595.566 400.944,-594.779 400,-594 357.998,-559.331 332.244,-574.374 290,-540 289.825,-539.858 289.651,-539.715 289.476,-539.572"/>
<ellipse fill="none" stroke="#88099b" cx="405.956" cy="-599.085" rx="4.00002" ry="4.00002"/>
<polygon fill="#88099b" stroke="#88099b" points="289.299,-539.419 284.659,-529.483 285.51,-536.156 281.722,-532.893 281.722,-532.893 281.722,-532.893 285.51,-536.156 278.785,-536.302 289.299,-539.419 289.299,-539.419"/>
</g>
<!-- Mailboxer::Message -->
<g id="node15" class="node"><title>Mailboxer::Message</title>
<ellipse fill="none" stroke="black" cx="404" cy="-423" rx="104.86" ry="18.3848"/>
<text text-anchor="middle" x="404" y="-419.4" font-family="Times Roman,serif" font-size="14.00">Mailboxer::Message</text>
</g>
<!-- User&#45;&gt;Mailboxer::Message -->
<g id="edge12" class="edge"><title>User&#45;&gt;Mailboxer::Message</title>
<path fill="none" stroke="#dd61dc" d="M465.786,-587.295C445.776,-534.085 426.284,-482.255 414.709,-451.475"/>
<ellipse fill="none" stroke="#dd61dc" cx="467.239" cy="-591.157" rx="4.00001" ry="4.00001"/>
<polygon fill="#dd61dc" stroke="#dd61dc" points="414.617,-451.232 415.309,-440.288 412.857,-446.552 411.097,-441.872 411.097,-441.872 411.097,-441.872 412.857,-446.552 406.885,-443.456 414.617,-451.232 414.617,-451.232"/>
<text text-anchor="middle" x="492.5" y="-563.4" font-family="Times Roman,serif" font-size="14.00">messages</text>
</g>
<!-- Mailboxer::Receipt -->
<g id="node17" class="node"><title>Mailboxer::Receipt</title>
<ellipse fill="none" stroke="black" cx="626" cy="-423" rx="99.201" ry="18.3848"/>
<text text-anchor="middle" x="626" y="-419.4" font-family="Times Roman,serif" font-size="14.00">Mailboxer::Receipt</text>
</g>
<!-- User&#45;&gt;Mailboxer::Receipt -->
<g id="edge14" class="edge"><title>User&#45;&gt;Mailboxer::Receipt</title>
<path fill="none" stroke="#afde8d" d="M583.966,-586.933C597.521,-534.069 610.715,-482.61 618.601,-451.856"/>
<ellipse fill="none" stroke="#afde8d" cx="582.916" cy="-591.026" rx="4.00001" ry="4.00001"/>
<polygon fill="#afde8d" stroke="#afde8d" points="618.677,-451.559 625.52,-442.99 619.919,-446.716 621.161,-441.872 621.161,-441.872 621.161,-441.872 619.919,-446.716 616.802,-440.755 618.677,-451.559 618.677,-451.559"/>
<text text-anchor="middle" x="617.5" y="-563.4" font-family="Times Roman,serif" font-size="14.00">receipts</text>
</g>
<!-- House&#45;&gt;Comment -->
<g id="edge20" class="edge"><title>House&#45;&gt;Comment</title>
<path fill="none" stroke="#c2771e" d="M168.04,-298.74C164.959,-286.377 161.822,-273.784 158.715,-261.315"/>
<ellipse fill="none" stroke="#c2771e" cx="169.105" cy="-303.015" rx="4.00001" ry="4.00001"/>
<polygon fill="#c2771e" stroke="#c2771e" points="158.65,-261.053 160.598,-250.261 157.441,-256.201 156.232,-251.349 156.232,-251.349 156.232,-251.349 157.441,-256.201 151.865,-252.437 158.65,-261.053 158.65,-261.053"/>
<text text-anchor="middle" x="227" y="-275.4" font-family="Times Roman,serif" font-size="14.00">comment_threads</text>
</g>
<!-- House&#45;&gt;Picture -->
<g id="edge18" class="edge"><title>House&#45;&gt;Picture</title>
<path fill="none" stroke="#8273bf" d="M287.341,-308.475C288.225,-307.641 289.112,-306.816 290,-306 346.128,-254.44 418.626,-207.906 475.375,-175.073"/>
<ellipse fill="none" stroke="#8273bf" cx="284.413" cy="-311.316" rx="4.00002" ry="4.00002"/>
<polygon fill="#8273bf" stroke="#8273bf" points="475.671,-174.903 486.583,-173.825 480.006,-172.413 484.342,-169.923 484.342,-169.923 484.342,-169.923 480.006,-172.413 482.101,-166.021 475.671,-174.903 475.671,-174.903"/>
</g>
<!-- AdminUser -->
<g id="node7" class="node"><title>AdminUser</title>
<polyline fill="none" stroke="black" points="793,-640 1023,-640 "/>
<path fill="none" stroke="black" d="M1023,-640C1029,-640 1035,-646 1035,-652"/>
<polyline fill="none" stroke="black" points="1035,-652 1035,-896 "/>
<path fill="none" stroke="black" d="M1035,-896C1035,-902 1029,-908 1023,-908"/>
<polyline fill="none" stroke="black" points="1023,-908 793,-908 "/>
<path fill="none" stroke="black" d="M793,-908C787,-908 781,-902 781,-896"/>
<polyline fill="none" stroke="black" points="781,-896 781,-652 "/>
<path fill="none" stroke="black" d="M781,-652C781,-646 787,-640 793,-640"/>
<text text-anchor="middle" x="908" y="-891.4" font-family="Times Roman,serif" font-size="14.00">AdminUser</text>
<polyline fill="none" stroke="black" points="781,-882 1035,-882 "/>
<text text-anchor="start" x="789" y="-865.4" font-family="Times Roman,serif" font-size="14.00">id :integer</text>
<text text-anchor="start" x="789" y="-847.4" font-family="Times Roman,serif" font-size="14.00">email :string</text>
<text text-anchor="start" x="789" y="-829.4" font-family="Times Roman,serif" font-size="14.00">encrypted_password :string</text>
<text text-anchor="start" x="789" y="-811.4" font-family="Times Roman,serif" font-size="14.00">reset_password_token :string</text>
<text text-anchor="start" x="789" y="-793.4" font-family="Times Roman,serif" font-size="14.00">reset_password_sent_at :datetime</text>
<text text-anchor="start" x="789" y="-775.4" font-family="Times Roman,serif" font-size="14.00">remember_created_at :datetime</text>
<text text-anchor="start" x="789" y="-757.4" font-family="Times Roman,serif" font-size="14.00">sign_in_count :integer</text>
<text text-anchor="start" x="789" y="-739.4" font-family="Times Roman,serif" font-size="14.00">current_sign_in_at :datetime</text>
<text text-anchor="start" x="789" y="-721.4" font-family="Times Roman,serif" font-size="14.00">last_sign_in_at :datetime</text>
<text text-anchor="start" x="789" y="-703.4" font-family="Times Roman,serif" font-size="14.00">current_sign_in_ip :string</text>
<text text-anchor="start" x="789" y="-685.4" font-family="Times Roman,serif" font-size="14.00">last_sign_in_ip :string</text>
<text text-anchor="start" x="789" y="-667.4" font-family="Times Roman,serif" font-size="14.00">created_at :datetime</text>
<text text-anchor="start" x="789" y="-649.4" font-family="Times Roman,serif" font-size="14.00">updated_at :datetime</text>
</g>
<!-- ActiveRecord::Base -->
<g id="node9" class="node"><title>ActiveRecord::Base</title>
<ellipse fill="none" stroke="black" cx="372" cy="-1039" rx="104.151" ry="18.3848"/>
<text text-anchor="middle" x="372" y="-1035.4" font-family="Times Roman,serif" font-size="14.00">ActiveRecord::Base</text>
</g>
<!-- ActiveRecord::Base&#45;&gt;Comment -->
<g id="edge4" class="edge"><title>ActiveRecord::Base&#45;&gt;Comment</title>
<path fill="none" stroke="black" d="M332.178,-1021.9C310.616,-1012.78 283.458,-1001.51 259,-992 212.742,-974.021 184.706,-992.989 154,-954 -5.18956,-751.869 43.9236,-427.958 87.9647,-251.136"/>
</g>
<!-- ActiveRecord::Base&#45;&gt;Picture -->
<g id="edge6" class="edge"><title>ActiveRecord::Base&#45;&gt;Picture</title>
<path fill="none" stroke="black" d="M450.108,-1026.67C528.851,-1012.6 642.808,-987.171 672,-954 767.567,-845.406 786.846,-440.659 734,-306 716.558,-261.556 682.413,-221.548 649.519,-190.6"/>
</g>
<!-- ActiveRecord::Base&#45;&gt;Search -->
<g id="edge8" class="edge"><title>ActiveRecord::Base&#45;&gt;Search</title>
<path fill="none" stroke="black" d="M367.57,-1020.37C361.086,-993.092 348.492,-940.116 336.638,-890.255"/>
</g>
<!-- ActiveRecord::Base&#45;&gt;User -->
<g id="edge16" class="edge"><title>ActiveRecord::Base&#45;&gt;User</title>
<path fill="none" stroke="black" d="M383.532,-1020.37C393.266,-1004.64 408.289,-980.362 425.182,-953.066"/>
</g>
<!-- ActiveRecord::Base&#45;&gt;House -->
<g id="edge22" class="edge"><title>ActiveRecord::Base&#45;&gt;House</title>
<path fill="none" stroke="black" d="M330.955,-1021.89C289.902,-1003.87 231.033,-975.204 218,-954 140.956,-828.651 152.54,-653.371 172.222,-539.038"/>
</g>
<!-- ActiveRecord::Base&#45;&gt;AdminUser -->
<g id="edge24" class="edge"><title>ActiveRecord::Base&#45;&gt;AdminUser</title>
<path fill="none" stroke="black" d="M467.834,-1031.74C568.371,-1022.65 718.419,-1004.45 767,-974 793.637,-957.303 816.657,-933.548 835.924,-908.209"/>
</g>
</g>
</svg>
